<svg width="56" height="56" viewBox="0 0 56 56" fill="none" xmlns="http://www.w3.org/2000/svg">
<circle cx="28" cy="28" r="28" fill="white"/>
<path d="M21.0179 24.9498C21.0179 25.3436 21.0605 25.6629 21.135 25.897C21.2201 26.1312 21.3266 26.3866 21.4756 26.6633C21.5288 26.7484 21.5501 26.8336 21.5501 26.9081C21.5501 27.0145 21.4862 27.1209 21.3478 27.2274L20.6773 27.6744C20.5816 27.7382 20.4858 27.7702 20.4006 27.7702C20.2942 27.7702 20.1878 27.7169 20.0813 27.6212C19.9323 27.4615 19.8046 27.2912 19.6982 27.1209C19.5918 26.94 19.4853 26.7378 19.3683 26.493C18.5381 27.4722 17.4951 27.9617 16.2393 27.9617C15.3453 27.9617 14.6322 27.7063 14.1107 27.1954C13.5892 26.6846 13.3231 26.0034 13.3231 25.152C13.3231 24.2474 13.6424 23.513 14.2916 22.9596C14.9408 22.4061 15.8029 22.1294 16.8991 22.1294C17.261 22.1294 17.6335 22.1614 18.0273 22.2146C18.4211 22.2678 18.8255 22.3529 19.2512 22.4487V21.6718C19.2512 20.8629 19.0809 20.2989 18.751 19.9689C18.4104 19.639 17.8357 19.4794 17.0162 19.4794C16.6437 19.4794 16.2606 19.5219 15.8668 19.6177C15.473 19.7135 15.0898 19.8306 14.7173 19.9796C14.547 20.0541 14.4193 20.0966 14.3448 20.1179C14.2703 20.1392 14.2171 20.1499 14.1745 20.1499C14.0255 20.1499 13.951 20.0434 13.951 19.8199V19.2984C13.951 19.1281 13.9723 19.0004 14.0255 18.9259C14.0788 18.8514 14.1745 18.7769 14.3235 18.7024C14.696 18.5109 15.143 18.3512 15.6645 18.2235C16.186 18.0851 16.7395 18.0213 17.3248 18.0213C18.5913 18.0213 19.5173 18.3086 20.1133 18.8834C20.6986 19.4581 20.9966 20.3308 20.9966 21.5015V24.9498H21.0179ZM16.6969 26.5675C17.0481 26.5675 17.41 26.5037 17.7931 26.3759C18.1763 26.2482 18.5168 26.0141 18.8042 25.6948C18.9745 25.4926 19.1022 25.2691 19.1661 25.0136C19.2299 24.7582 19.2725 24.4496 19.2725 24.0877V23.6407C18.9638 23.5662 18.6339 23.5024 18.2933 23.4598C17.9528 23.4172 17.6228 23.3959 17.2929 23.3959C16.5798 23.3959 16.0583 23.5343 15.7071 23.8216C15.3559 24.109 15.1856 24.5134 15.1856 25.0456C15.1856 25.5458 15.3133 25.9183 15.5794 26.1737C15.8348 26.4398 16.2073 26.5675 16.6969 26.5675ZM25.2431 27.7169C25.0516 27.7169 24.9238 27.685 24.8387 27.6105C24.7536 27.5467 24.6791 27.3977 24.6152 27.1954L22.1141 18.9685C22.0503 18.7556 22.0183 18.6173 22.0183 18.5428C22.0183 18.3725 22.1035 18.2767 22.2738 18.2767H23.3168C23.519 18.2767 23.6573 18.3086 23.7318 18.3831C23.817 18.447 23.8808 18.596 23.9447 18.7982L25.7327 25.8438L27.393 18.7982C27.4462 18.5854 27.5101 18.447 27.5952 18.3831C27.6803 18.3193 27.8293 18.2767 28.0209 18.2767H28.8723C29.0746 18.2767 29.2129 18.3086 29.2981 18.3831C29.3832 18.447 29.4577 18.596 29.5003 18.7982L31.1818 25.9289L33.0231 18.7982C33.0869 18.5854 33.1614 18.447 33.2359 18.3831C33.3211 18.3193 33.4594 18.2767 33.651 18.2767H34.6408C34.8111 18.2767 34.9068 18.3619 34.9068 18.5428C34.9068 18.596 34.8962 18.6492 34.8856 18.7131C34.8749 18.7769 34.8536 18.8621 34.8111 18.9791L32.2461 27.2061C32.1823 27.4189 32.1078 27.5573 32.0226 27.6212C31.9375 27.685 31.7991 27.7276 31.6182 27.7276H30.7029C30.5007 27.7276 30.3623 27.6957 30.2772 27.6212C30.1921 27.5467 30.1176 27.4083 30.075 27.1954L28.4253 20.3308L26.7863 27.1848C26.7331 27.3977 26.6693 27.536 26.5841 27.6105C26.499 27.685 26.35 27.7169 26.1584 27.7169H25.2431ZM38.9192 28.0043C38.3658 28.0043 37.8123 27.9404 37.2802 27.8127C36.7481 27.685 36.333 27.5467 36.0563 27.387C35.886 27.2912 35.7689 27.1848 35.7263 27.089C35.6838 26.9932 35.6625 26.8868 35.6625 26.791V26.2482C35.6625 26.0247 35.7476 25.9183 35.9073 25.9183C35.9711 25.9183 36.035 25.9289 36.0988 25.9502C36.1627 25.9715 36.2585 26.0141 36.3649 26.0567C36.7268 26.2163 37.1206 26.344 37.5356 26.4292C37.9613 26.5143 38.3764 26.5569 38.8021 26.5569C39.4726 26.5569 39.9941 26.4398 40.356 26.2057C40.7178 25.9715 40.9094 25.6309 40.9094 25.1946C40.9094 24.8966 40.8136 24.6518 40.6221 24.4496C40.4305 24.2474 40.0686 24.0664 39.5471 23.8961L38.0039 23.4172C37.227 23.1724 36.6523 22.8106 36.3011 22.3316C35.9498 21.8634 35.7689 21.3419 35.7689 20.7884C35.7689 20.3414 35.8647 19.9476 36.0563 19.6071C36.2478 19.2665 36.5033 18.9685 36.8226 18.7344C37.1418 18.4896 37.5037 18.3086 37.9294 18.1809C38.3551 18.0532 38.8021 18 39.2704 18C39.5046 18 39.7493 18.0106 39.9835 18.0426C40.2283 18.0745 40.4518 18.1171 40.6753 18.1596C40.8881 18.2129 41.0903 18.2661 41.2819 18.3299C41.4735 18.3938 41.6225 18.4576 41.7289 18.5215C41.8779 18.6066 41.9843 18.6918 42.0482 18.7876C42.1121 18.8727 42.144 18.9898 42.144 19.1388V19.639C42.144 19.8625 42.0588 19.9796 41.8992 19.9796C41.8141 19.9796 41.6757 19.937 41.4948 19.8519C40.8881 19.5751 40.207 19.4368 39.4513 19.4368C38.8447 19.4368 38.3658 19.5326 38.0358 19.7348C37.7059 19.937 37.5356 20.2456 37.5356 20.682C37.5356 20.98 37.6421 21.2354 37.8549 21.4376C38.0678 21.6399 38.4616 21.8421 39.0256 22.023L40.5369 22.5019C41.3032 22.7467 41.8566 23.0873 42.1866 23.5236C42.5165 23.96 42.6761 24.4602 42.6761 25.0136C42.6761 25.4713 42.5803 25.8864 42.3994 26.2482C42.2078 26.6101 41.9524 26.9294 41.6225 27.1848C41.2926 27.4509 40.8988 27.6424 40.4411 27.7808C39.9622 27.9298 39.462 28.0043 38.9192 28.0043Z" fill="#252F3E"/>
<path fill-rule="evenodd" clip-rule="evenodd" d="M40.9307 33.1767C37.4292 35.7629 32.3419 37.1359 27.9677 37.1359C21.8374 37.1359 16.3138 34.8689 12.1418 31.1014C11.8118 30.8034 12.1098 30.3989 12.5036 30.6331C17.0162 33.2512 22.5824 34.837 28.3402 34.837C32.2248 34.837 36.4926 34.0281 40.4199 32.3679C41.0052 32.1018 41.5054 32.751 40.9307 33.1767Z" fill="#FF9900"/>
<path fill-rule="evenodd" clip-rule="evenodd" d="M42.3888 31.5164C41.9418 30.9417 39.43 31.2397 38.2913 31.3781C37.9507 31.4206 37.8975 31.1226 38.2061 30.8991C40.207 29.4943 43.4956 29.8987 43.8788 30.367C44.2619 30.8459 43.7723 34.1346 41.8992 35.7097C41.6118 35.9545 41.3351 35.8268 41.4628 35.5075C41.8885 34.4538 42.8358 32.0805 42.3888 31.5164Z" fill="#FF9900"/>
</svg>
