<svg width="101" height="24" viewBox="0 0 101 24" fill="none" xmlns="http://www.w3.org/2000/svg">
    <path d="M12 24C18.6274 24 24 18.6274 24 12C24 5.37258 18.6274 0 12 0C5.37258 0 0 5.37258 0 12C0 18.6274 5.37258 24 12 24Z" fill="#279FEA"/>
    <path d="M12.65 18.53V16.25H11.35V18.53L10.115 17.84L8.78497 18.605L12 20.455C12 20.455 15.155 18.63 15.29 18.56L14 17.815L12.65 18.53Z" fill="white"/>
    <path d="M5.98995 9.28005L7.86995 10.37L8.51995 9.21005L6.55495 8.14505L7.63995 7.52505L7.63495 6.05005L4.66995 7.77505L4.67495 11.33L5.98995 10.585V9.28005Z" fill="white"/>
    <path d="M16.0399 10.3701L17.9899 9.26011L17.9849 10.5851L19.3299 11.3401V7.76511L16.2149 5.98511L16.1649 7.43511L17.4249 8.18011L15.4349 9.12011L16.0399 10.3701Z" fill="white"/>
    <path d="M19.32 12.815L18 12.06V12.14V14.56L12.625 11.53V5.41503L14.95 6.73503V5.27503L12 3.53003L8.92496 5.28503V6.78503L11.245 5.44503V11.53L5.99996 14.725V12.03L4.67496 12.785V16.23L7.44996 17.775L8.79996 17L6.59996 15.79L12 12.655L17.335 15.755L15.195 16.99L16.585 17.805L19.305 16.24L19.32 12.815Z" fill="white"/>
    <path d="M97.36 7.91502H97.825V9.38502H98.095V7.91502H98.595V7.64502H97.37L97.36 7.91502Z" fill="white"/>
    <path d="M100.085 7.64502L99.6651 8.87002L99.2751 7.64502H98.8301V9.38502H99.1001V7.98502L99.5701 9.38502H99.7651L100.23 7.98502V9.38502H100.5V7.64502H100.085Z" fill="white"/>
    <path d="M30.205 7.86516H32.61V10.2652C33.26 8.67516 34.465 7.59016 36.3 7.67016V10.2652H36.16C34.07 10.2652 32.61 11.6502 32.61 14.4702V18.5152H30.205V7.86516Z" fill="white"/>
    <path d="M37.27 13.215V13.175C37.27 10.14 39.38 7.64502 42.355 7.64502C45.67 7.64502 47.355 10.3 47.355 13.36C47.355 13.58 47.355 13.8 47.315 14.04H39.655C39.7136 14.7888 40.0576 15.4865 40.6159 15.9889C41.1742 16.4914 41.9041 16.7603 42.655 16.74C43.1924 16.744 43.7244 16.6326 44.2152 16.4136C44.706 16.1945 45.1441 15.8727 45.5 15.47L46.875 16.765C46.37 17.4075 45.7218 17.9229 44.9821 18.2702C44.2424 18.6174 43.4318 18.7869 42.615 18.765C39.595 18.73 37.27 16.495 37.27 13.215ZM45 12.43C44.84 10.865 43.935 9.63502 42.36 9.63502C40.9 9.63502 39.86 10.78 39.655 12.43H45Z" fill="white"/>
    <path d="M49.5 3.80005H51.905V18.49H49.5V3.80005Z" fill="white"/>
    <path d="M54.0599 13.215V13.175C54.0599 10.14 56.1699 7.64502 59.1499 7.64502C62.4649 7.64502 64.1499 10.3 64.1499 13.36C64.1499 13.58 64.1499 13.8 64.1099 14.04H56.4499C56.5074 14.7893 56.8511 15.4877 57.4096 15.9903C57.9682 16.493 58.6988 16.7615 59.4499 16.74C59.9833 16.741 60.5107 16.6283 60.997 16.4093C61.4832 16.1903 61.9172 15.8701 62.2699 15.47L63.6699 16.74C63.1658 17.3834 62.5177 17.8994 61.7779 18.2468C61.038 18.5941 60.227 18.7631 59.4099 18.74C56.3899 18.73 54.0599 16.495 54.0599 13.215ZM61.7749 12.43C61.6149 10.865 60.7099 9.63502 59.1299 9.63502C57.6699 9.63502 56.6299 10.78 56.4299 12.43H61.7749Z" fill="white"/>
    <path d="M65.4401 15.43V15.39C65.4401 13.095 67.2151 11.97 69.7601 11.97C70.7113 11.9605 71.6576 12.1092 72.5601 12.41V12.15C72.5601 10.65 71.6551 9.835 69.9751 9.835C68.9472 9.84054 67.9325 10.0673 67.0001 10.5L66.3501 8.59C67.5792 8.00186 68.9276 7.70582 70.2901 7.725C71.8501 7.725 73.0151 8.145 73.7451 8.91C74.4751 9.675 74.8701 10.8 74.8701 12.19V18.49H72.5401V17.16C72.1324 17.6619 71.6144 18.0628 71.0264 18.3317C70.4384 18.6005 69.7963 18.73 69.1501 18.71C67.1951 18.71 65.4401 17.565 65.4401 15.43ZM72.6001 14.665V13.94C71.8445 13.6549 71.0426 13.5124 70.2351 13.52C68.6951 13.52 67.7901 14.18 67.7901 15.29V15.33C67.7901 16.33 68.6751 16.94 69.8201 16.94C71.3951 16.94 72.6001 16.015 72.6001 14.665Z" fill="white"/>
    <path d="M76.5599 17.1002L77.6249 15.4502C78.5911 16.243 79.7866 16.704 81.0349 16.7652C82.0599 16.7652 82.6549 16.3202 82.6549 15.6152V15.5752C82.6549 14.7502 81.5499 14.4702 80.3249 14.0752C78.7899 13.6352 77.0699 12.9902 77.0699 10.9802V10.9402C77.0699 8.90518 78.7099 7.68018 80.7799 7.68018C82.1441 7.70678 83.4719 8.12506 84.6049 8.88518L83.6599 10.6152C82.786 10.027 81.7713 9.68191 80.7199 9.61518C79.7949 9.61518 79.2599 10.0802 79.2599 10.6602V10.7002C79.2599 11.4852 80.3849 11.8102 81.6099 12.2002C83.1099 12.7002 84.8449 13.3902 84.8449 15.3002V15.3402C84.8449 17.5752 83.1449 18.6802 80.9749 18.6802C79.3669 18.6679 77.8106 18.1109 76.5599 17.1002V17.1002Z" fill="white"/>
    <path d="M86.27 13.215V13.175C86.27 10.14 88.38 7.64502 91.355 7.64502C94.67 7.64502 96.355 10.3 96.355 13.36C96.355 13.58 96.355 13.8 96.315 14.04H88.665C88.7236 14.7888 89.0677 15.4865 89.6259 15.9889C90.1842 16.4914 90.9141 16.7603 91.665 16.74C92.2007 16.7425 92.7308 16.6305 93.2197 16.4115C93.7087 16.1925 94.1452 15.8715 94.5 15.47L95.9 16.74C95.395 17.3825 94.7468 17.8979 94.0071 18.2452C93.2674 18.5924 92.4568 18.7619 91.64 18.74C88.595 18.73 86.27 16.495 86.27 13.215ZM94 12.43C93.84 10.865 92.935 9.63502 91.355 9.63502C89.895 9.63502 88.855 10.78 88.655 12.43H94Z" fill="white"/>
</svg>
