<svg width="56" height="56" viewBox="0 0 56 56" fill="none" xmlns="http://www.w3.org/2000/svg">
<path d="M19.5436 19.6174C19.5006 19.5821 19.4538 19.5442 19.4075 19.5058C18.4589 18.7184 17.7247 17.8081 17.2813 16.732C17.1572 16.4308 17.0635 16.1237 17.0801 15.7993C17.0817 15.7685 17.0816 15.7377 17.084 15.7069C17.1175 15.2882 17.4418 15.0767 17.9155 15.1758C18.0649 15.2092 18.2094 15.2571 18.3464 15.3185C18.8645 15.5429 19.2867 15.8747 19.675 16.2386C20.3647 16.8727 20.9178 17.6081 21.3082 18.4101C21.3168 18.4292 21.3265 18.4479 21.3376 18.4661C21.3428 18.4744 21.3542 18.4799 21.3796 18.4998C23.228 17.5417 25.319 16.9874 27.4712 16.8849C27.4579 16.828 27.45 16.7845 27.4376 16.742C27.218 15.9568 27.1506 15.1456 27.2381 14.3414C27.2766 13.8595 27.389 13.3841 27.5722 12.9277C27.6609 12.6873 27.8006 12.4633 27.984 12.267C28.0533 12.1969 28.1334 12.1353 28.2219 12.0837C28.31 12.0299 28.4153 12.0007 28.5232 12C28.6312 11.9994 28.7368 12.0273 28.8259 12.0801C29.0139 12.1902 29.1654 12.341 29.265 12.5174C29.4505 12.8166 29.5837 13.1379 29.6606 13.4707C29.8357 14.1746 29.8895 14.897 29.8202 15.6145C29.7859 16.0524 29.6979 16.486 29.5578 16.9079C30.0932 16.9931 30.6261 17.0591 31.1477 17.1662C31.6682 17.2708 32.1813 17.401 32.6846 17.5562C33.192 17.717 33.6884 17.9029 34.1711 18.1128C34.6482 18.3183 35.1024 18.5636 35.5784 18.7973C35.5939 18.7692 35.6163 18.7356 35.6315 18.6998C36.1274 17.5146 36.9816 16.4658 38.1053 15.6622C38.3675 15.4677 38.6688 15.3162 38.9941 15.2151C39.0837 15.1881 39.1765 15.1697 39.2707 15.1602C39.7417 15.1137 39.9394 15.3697 39.9742 15.6755C40.0002 15.9009 39.9806 16.1285 39.916 16.3481C39.7439 16.9152 39.4718 17.4561 39.1093 17.9517C38.5987 18.6644 37.9926 19.3064 37.2225 19.8244C37.1999 19.8397 37.1799 19.8581 37.1413 19.8887C37.8946 20.489 38.5656 21.1621 39.1407 21.8948C39.0992 21.904 39.0566 21.9105 39.0138 21.9141C38.2171 21.9151 37.4205 21.9129 36.6238 21.9171C36.577 21.9161 36.5309 21.9056 36.4896 21.8866C36.4481 21.8676 36.4125 21.8404 36.3854 21.8073C34.6472 20.1667 32.304 19.0981 29.7555 18.7837C29.0018 18.689 28.2387 18.6635 27.4788 18.7077C25.2131 18.8272 23.0456 19.549 21.2731 20.774C20.8154 21.0859 20.3885 21.4301 19.9967 21.8031C19.9619 21.8403 19.9176 21.8701 19.8671 21.8899C19.8167 21.9097 19.7616 21.919 19.7062 21.9172C18.9453 21.9126 18.1843 21.915 17.4233 21.915H17.2615C17.308 21.7585 17.7758 21.2045 18.3054 20.7098C18.7003 20.341 19.1187 19.9908 19.5436 19.6174Z" fill="#0F1689"/>
<path d="M38.942 34.3481C38.4128 34.988 37.8087 35.5793 37.1395 36.1125C37.1928 36.1508 37.2362 36.1821 37.2794 36.2132C38.4411 37.0341 39.3175 38.1165 39.8121 39.3406C39.9436 39.6391 40 39.9585 39.9776 40.2773C39.9707 40.359 39.9518 40.4396 39.9213 40.5171C39.8831 40.6269 39.7996 40.7209 39.6865 40.781C39.5735 40.8412 39.4387 40.8634 39.308 40.8434C39.1316 40.8236 38.9599 40.7796 38.7995 40.7131C38.5546 40.6087 38.3231 40.482 38.1092 40.3353C36.9822 39.5354 36.1266 38.4871 35.6328 37.3014C35.6187 37.2681 35.6033 37.2351 35.5785 37.1795C34.9783 37.5223 34.3498 37.8264 33.6979 38.0894C33.0492 38.3448 32.3783 38.556 31.6914 38.7211C30.9934 38.8847 30.2819 39.0017 29.5632 39.071C29.5759 39.1256 29.5832 39.1691 29.5961 39.2113C29.8241 39.9839 29.8997 40.7841 29.8195 41.5785C29.7895 42.0764 29.6775 42.568 29.487 43.0386C29.3963 43.2333 29.2917 43.423 29.1739 43.6066C29.1261 43.6778 29.0668 43.7427 28.998 43.7996C28.6988 44.0665 28.3414 44.0687 28.0497 43.7948C27.9345 43.6843 27.8358 43.5617 27.756 43.4298C27.5247 43.0547 27.4056 42.6468 27.3206 42.2308C27.2111 41.6629 27.1769 41.0862 27.2184 40.5116C27.241 40.0909 27.3137 39.6733 27.4353 39.2655C27.4459 39.2309 27.4555 39.196 27.4632 39.1608C27.4652 39.1519 27.4584 39.1416 27.4504 39.1129C25.2984 39.0079 23.2087 38.4506 21.3626 37.4894C21.3317 37.5485 21.3053 37.5982 21.2798 37.6483C20.7624 38.6912 19.9661 39.6132 18.9564 40.3388C18.6891 40.5362 18.382 40.6894 18.0506 40.7908C17.8952 40.8446 17.7257 40.8604 17.5607 40.8363C17.4696 40.8222 17.3843 40.7879 17.3131 40.7369C17.2418 40.6857 17.1872 40.6195 17.1545 40.5447C17.048 40.3223 17.0668 40.091 17.103 39.8616C17.1623 39.5419 17.2713 39.2305 17.4269 38.9359C17.888 38.0081 18.5667 37.1729 19.4202 36.483C19.4547 36.4547 19.4901 36.4273 19.524 36.3986C19.5348 36.3852 19.544 36.371 19.5515 36.3559C18.7473 35.7535 18.0288 35.0706 17.411 34.3218C17.485 34.3165 17.5345 34.3101 17.5841 34.31C18.3746 34.3094 19.1652 34.3118 19.9557 34.3072C20.0083 34.3058 20.0605 34.3146 20.1087 34.3328C20.1569 34.3511 20.1997 34.3784 20.2341 34.4128C21.0936 35.1767 22.095 35.8109 23.1967 36.2891C24.3623 36.8073 25.6298 37.1328 26.9339 37.2488C30.4767 37.5463 33.5243 36.6184 36.0765 34.4651C36.1336 34.4117 36.2037 34.3699 36.2814 34.3425C36.3593 34.3151 36.4432 34.3027 36.5272 34.3064C37.2642 34.3142 38.0012 34.3096 38.7383 34.3096H38.9287L38.942 34.3481Z" fill="#0F1689"/>
<path d="M35.6493 24.5947C35.8588 24.5947 36.0606 24.6071 36.2593 24.5915C36.4845 24.5739 36.6457 24.6435 36.81 24.7743C37.7584 25.5292 38.7166 26.2749 39.6715 27.0235C39.7196 27.0612 39.7686 27.0979 39.8301 27.145C39.8877 27.1024 39.9415 27.0642 39.993 27.0238C40.9773 26.2496 41.961 25.4748 42.944 24.6993C42.9847 24.6629 43.0341 24.6346 43.0886 24.6162C43.1431 24.5978 43.2015 24.5897 43.26 24.5924C43.502 24.6008 43.7447 24.5947 44 24.5947V31.4391C43.8704 31.4719 42.1296 31.4784 41.9218 31.4432V27.9769L41.8815 27.9604C41.204 28.4943 40.5265 29.028 39.8336 29.574C39.1398 29.0341 38.4545 28.5007 37.7691 27.9672L37.7296 27.9797C37.7278 28.2689 37.729 28.5583 37.7288 28.8477C37.7287 29.1352 37.7285 29.4227 37.7288 29.7103V31.4558H35.6665C35.6279 31.3406 35.6099 24.982 35.6493 24.5947Z" fill="#0F1689"/>
<path d="M16.6192 24.6026H18.669C18.7104 24.7164 18.7185 31.2912 18.6761 31.4572H16.6244C16.6131 31.0217 16.6209 30.5878 16.6195 30.154C16.6181 29.7239 16.6192 29.2936 16.6192 28.8523H14.0788V31.4337C13.9239 31.4737 12.174 31.4776 12 31.4418V24.6034H14.0705V27.019C14.2185 27.056 16.3956 27.0628 16.6173 27.0275C16.6179 26.8341 16.6188 26.636 16.6191 26.438C16.6194 26.2325 16.6194 26.0271 16.6192 25.8217C16.6192 25.6214 16.6192 25.4211 16.6192 25.2208C16.6192 25.0209 16.6192 24.821 16.6192 24.6026Z" fill="#0F1689"/>
<path d="M21.126 31.4547V24.623C21.2476 24.5886 25.7534 24.5752 26.0479 24.6097V26.0656C25.9819 26.0697 25.9137 26.0775 25.8455 26.0776C25.043 26.0784 24.2406 26.0786 23.4382 26.0782H23.215V27.2106H25.7223V28.7171H23.2375C23.1959 28.846 23.1845 29.7444 23.2182 29.9931C23.2817 29.9968 23.3498 30.0041 23.4179 30.0042C24.2203 30.005 25.0227 30.0052 25.8252 30.0047H26.0484V31.4547H21.126Z" fill="#0F1689"/>
<path d="M28.3972 31.4572C28.3596 31.2739 28.3671 24.7276 28.4046 24.6032H30.4467V29.6546C30.5348 29.6585 30.604 29.6642 30.6731 29.6643C31.4815 29.6649 32.29 29.665 33.0984 29.6647C33.1679 29.6647 33.2376 29.6647 33.317 29.6647V31.4572H28.3972Z" fill="#0F1689"/>
</svg>
