<?xml version="1.0" standalone="no"?>
<!DOCTYPE svg PUBLIC "-//W3C//DTD SVG 20010904//EN"
 "http://www.w3.org/TR/2001/REC-SVG-20010904/DTD/svg10.dtd">
<svg version="1.0" xmlns="http://www.w3.org/2000/svg"
 width="200.000000pt" height="200.000000pt" viewBox="0 0 200.000000 200.000000"
 preserveAspectRatio="xMidYMid meet">

<g transform="translate(0.000000,200.000000) scale(0.100000,-0.100000)"
fill="#000000" stroke="none">
<path d="M1008 1990 c-31 -19 -51 -104 -46 -206 l4 -94 -26 0 c-45 0 -180 -38
-239 -68 l-57 -28 -34 59 c-39 66 -106 133 -145 143 -29 7 -55 -10 -55 -35 0
-40 36 -118 82 -178 l49 -65 -63 -66 -62 -67 73 -3 72 -3 56 51 c137 126 351
180 528 135 89 -23 197 -79 259 -136 l55 -50 71 3 72 3 -56 61 -55 61 45 44
c80 79 134 228 89 245 -42 16 -150 -79 -195 -171 -12 -25 -24 -45 -26 -45 -2
0 -35 16 -74 36 -39 19 -109 45 -158 57 l-87 22 9 59 c12 71 -4 178 -32 215
-22 30 -32 33 -54 21z"/>
<path d="M140 1000 l0 -210 55 0 55 0 0 80 0 80 70 0 70 0 0 -80 0 -80 55 0
55 0 0 210 0 210 -55 0 -55 0 0 -75 0 -75 -70 0 -70 0 0 75 0 75 -55 0 -55 0
0 -210z"/>
<path d="M630 1000 l0 -210 130 0 130 0 0 45 0 45 -75 0 -75 0 0 40 0 40 70 0
70 0 0 45 0 45 -70 0 -70 0 0 35 0 35 75 0 75 0 0 45 0 45 -130 0 -130 0 0
-210z"/>
<path d="M1020 1000 l0 -210 136 0 135 0 -3 53 -3 52 -77 3 -78 3 0 154 0 155
-55 0 -55 0 0 -210z"/>
<path d="M1410 1000 l0 -210 55 0 54 0 3 108 3 107 51 -47 c28 -27 54 -48 59
-48 4 0 30 21 59 46 l51 47 3 -107 3 -106 54 0 55 0 0 210 0 210 -26 0 c-18 0
-51 -22 -111 -77 -62 -56 -88 -74 -98 -67 -7 5 -47 39 -88 77 -52 47 -82 67
-101 67 l-26 0 0 -210z"/>
<path d="M441 593 c7 -10 33 -39 57 -65 l45 -47 -37 -42 c-98 -116 -123 -254
-42 -233 38 9 125 98 154 156 l23 46 73 -34 c41 -18 114 -42 163 -51 l89 -18
-4 -82 c-7 -125 22 -213 69 -213 28 0 50 42 62 119 7 49 7 88 0 126 -10 55 -9
56 16 61 93 19 165 42 227 74 l71 37 25 -51 c48 -98 150 -189 193 -172 44 17
-8 163 -88 247 l-43 45 48 55 49 54 -71 3 -71 3 -52 -45 c-98 -87 -255 -146
-387 -146 -131 0 -290 60 -387 144 -51 46 -52 46 -123 46 -67 0 -72 -1 -59
-17z"/>
</g>
</svg>
